/* XPM */
static char *MASSIVElogoTransparent32x32[] = {
/* columns rows colors chars-per-pixel */
"32 32 218 2 ",
"   c #6B523C",
".  c #496D2F",
"X  c #41603A",
"o  c #4A7C39",
"O  c #223A55",
"+  c #002A76",
"@  c #002A77",
"#  c #002E77",
"$  c #00237C",
"%  c #003378",
"&  c #003379",
"*  c #00347D",
"=  c #1D3177",
"-  c #39366A",
";  c #204673",
":  c #766363",
">  c #646372",
",  c #AE1F16",
"<  c #B52D14",
"1  c #DB1301",
"2  c #DE1702",
"3  c #D91900",
"4  c #DD1802",
"5  c #DF1D00",
"6  c #E01D00",
"7  c #DD2201",
"8  c #DF2400",
"9  c #DF2600",
"0  c #CB3F01",
"q  c #DD3800",
"w  c #EC2200",
"e  c #E22A00",
"r  c #EC2C00",
"t  c #E43600",
"y  c #E63800",
"u  c #E23E01",
"i  c #B14E0F",
"p  c #B04D1C",
"a  c #BF5010",
"s  c #A74029",
"d  c #976328",
"f  c #DD4F01",
"g  c #DB5200",
"h  c #E84100",
"j  c #EC4400",
"k  c #E84C00",
"l  c #F54D00",
"z  c #E55200",
"x  c #E45300",
"c  c #E35A00",
"v  c #E35D00",
"b  c #E65C00",
"n  c #E85900",
"m  c #EC5A00",
"M  c #F15500",
"N  c #FA5300",
"B  c #F35900",
"V  c #F05A00",
"C  c #F05B00",
"Z  c #F35A00",
"A  c #CB6B00",
"S  c #C47A10",
"D  c #E56100",
"F  c #E86300",
"G  c #ED6100",
"H  c #ED6500",
"J  c #E06900",
"K  c #F16700",
"L  c #ED7100",
"P  c #EB7402",
"I  c #F77400",
"U  c #F97D00",
"Y  c #FC7E00",
"T  c #74BB07",
"R  c #7CBC00",
"E  c #5EAB2D",
"W  c #7DC200",
"Q  c #81BF00",
"!  c #83BF00",
"~  c #84BD00",
"^  c #87BF00",
"/  c #ACB400",
"(  c #C88A05",
")  c #D28500",
"_  c #C19C00",
"`  c #EF8100",
"'  c #E68800",
"]  c #EB8F00",
"[  c #F08000",
"{  c #F28000",
"}  c #F08501",
"|  c #F28B00",
" . c #F78900",
".. c #F08E00",
"X. c #F48F00",
"o. c #F58F00",
"O. c #E19F00",
"+. c #FC9000",
"@. c #D3AC00",
"#. c #D9AB00",
"$. c #C4BF00",
"%. c #E9B100",
"&. c #E2BC02",
"*. c #81C000",
"=. c #84C000",
"-. c #85C100",
";. c #86C100",
":. c #85C200",
">. c #83C500",
",. c #8BC100",
"<. c #8BC300",
"1. c #8EC200",
"2. c #8AC600",
"3. c #8EC600",
"4. c #8ECE00",
"5. c #9FC100",
"6. c #97CB00",
"7. c #9BC900",
"8. c #9FCB00",
"9. c #9ACD00",
"0. c #A2C900",
"q. c #A0CA00",
"w. c #A2CB00",
"e. c #A5CA00",
"r. c #A4CC00",
"t. c #ADCA00",
"y. c #ACCC00",
"u. c #ADCC00",
"i. c #AFCD00",
"p. c #B0CC00",
"a. c #B0CD00",
"s. c #B0CE00",
"d. c #B0CF00",
"f. c #B3CF00",
"g. c #AFD600",
"h. c #ACDD00",
"j. c #B1D000",
"k. c #B0D100",
"l. c #B1D100",
"z. c #B3D000",
"x. c #B2D100",
"c. c #B3D100",
"v. c #B3D200",
"b. c #B5D000",
"n. c #B4D200",
"m. c #B4D300",
"M. c #B6D200",
"N. c #B4D500",
"B. c #B6D500",
"V. c #B9D400",
"C. c #C4D300",
"Z. c #C6D300",
"A. c #C0D400",
"S. c #C3D500",
"D. c #C5D400",
"F. c #C6D500",
"G. c #CBD300",
"H. c #CCD700",
"J. c #DED700",
"K. c #D3D800",
"L. c #D8D900",
"P. c #DEDA00",
"I. c #E1D700",
"U. c #E1D900",
"Y. c #E3D900",
"T. c #E1DA00",
"R. c #E2DA00",
"E. c #E3DA00",
"W. c #E3DB00",
"Q. c #E5DB00",
"!. c #E6DA00",
"~. c #E6DB00",
"^. c #E7DB00",
"/. c #E4DC00",
"(. c #E7DD00",
"). c #E8DC00",
"_. c #EADC00",
"`. c #EADD00",
"'. c #EDDC00",
"]. c #ECDD00",
"[. c #EEDD00",
"{. c #F1DE00",
"}. c #C4E000",
"|. c #D2E400",
" X c #D5E600",
".X c #D8E200",
"XX c #EAE300",
"oX c #003386",
"OX c #00388B",
"+X c #093692",
"@X c #003B95",
"#X c #14778C",
"$X c #0041A2",
"%X c #0046A2",
"&X c #0047A4",
"*X c #0049A4",
"=X c #0049A6",
"-X c #004AA8",
";X c #004EAC",
":X c #0153AA",
">X c #0058AB",
",X c #0059AE",
"<X c #005CAC",
"1X c #0049BC",
"2X c #0658B4",
"3X c #0058BF",
"4X c #005EBC",
"5X c #0370BF",
"6X c #0271CC",
"7X c #007DDB",
"8X c #007AE7",
"9X c #0A86A7",
"0X c #0080D3",
"qX c #0083E1",
"wX c #0080EA",
"eX c #008AE9",
"rX c #0086FE",
"tX c None",
/* pixels */
"tXtXtXtXtXtXI.E.J.tXtXtXtXtXtXtXtXtXtXtXtXtXtXtXtXtXtXtXtXtXtXtX",
"tXtXtXtXtXtX!._.L.m.tXtXtXtXtXtXtXtXtXtXtXtXtXtXtXtXtXtXtXtXtXtX",
"tXtXtXtXtXE._.!.F.l.s.tXtXtXtXtXtXtXtXtXtXtXtXtXtXtXtXtXtXtXtXtX",
"tXtXtXtXtXs.u.u.l.m.l.tXtXtXtXtXtXtXtXtXtXtXtXtXtXtXtXtXtXtXtXtX",
"tXtXtXtXtXR *.-.8.m.tXtXtXtXtXtXtXtXtXtXtXtXtXtXtXtXtXtXtXtXtXtX",
"tXtXtXtXtXtX~ -.,.0.tXtXtXtXtXtXtXtXtXtXtXtXtXtXtXtXtXtXtXtXtXtX",
"tXtXtXtXtXtXtXtXtXtXtXtXtXtXtXtXtXtXtXtXtXtXtXtXtXtXtXtXtXtXtXtX",
"tXtXtXtXtXtXtXtXtXtXtXtXtXtXtXtXtXtXtXtXtXtXtXtXtXtXtXtXtXtXtXtX",
"tXtXtXtXtXtXtXtXtXtXtXtXtXtXtXtXtXtXtXtXtXtXtXtXtXtXtXtXtXtXtXtX",
"tXtXtXtXtXtXtXtXtXtXtXE.~.E.S.tXtX` | [ v tXtXtXtXtXtXtXtXtXtXtX",
"tXtXtXtXtXtXtXtXtXtX[.[.{.L.N.s.O.X.X.L x f tXtXtXtXtXtXtXtXtXtX",
"tXtXtXtXtXtXtXtXtXtXG.C.C.V.h.g.) m G B N l tXtXtXtXtXtXtXtXtXtX",
"tXtXtXtXtXtXtXtXtXtXE 3.2.7.$.@.J y 5 s : > tXtXtXtXtXtXtXtXtXtX",
"tXtXtXtXtXtXtXtXtX8X9XT 4./ ]  .} B < 2XrXwX4XtXtXtXtXtXtXtXtXtX",
"tXtXtXtXtXtXtXtX0XqX7X#Xo ( +...P M p 5XeX6X;X%XtXtXtXtXtXtXtXtX",
"tXtXtXtXtXtXtXtX>X<X,X1X- g K F b m 0 = 3X:X-X=XtXtXtXtXtXtXtXtX",
"tXtXtXtXtXtXtXtX# % * $X+X, w 7 u B i O % OX=X&XtXtXtXtXtXtXtXtX",
"tXtXtXtXtXtXtXtXtX@ @ oX; a r 1 9 F &.F.. $ @XtXtXtXtXtXtXtXtXtX",
"tXtXtXtXtXtXtXtXtXtX  d S U k x ' %.XX|.5.X tXtXtXtXtXtXtXtXtXtX",
"tXtXtXtXtXtXtXtXtXtXI U U H c #. X.XH.m.N.}.tXtXtXtXtXtXtXtXtXtX",
"tXtXtXtXtXtXtXtXtXtXq y t h n _ 9.7.8.l.l.tXtXtXtXtXtXtXtXtXtXtX",
"tXtXtXtXtXtXtXtXtXtXtX3 5 e j A W >.1.r.m.tXtXtXtXtXtXtXtXtXtXtX",
"tXtXtXtXtXtXtXtXtXtXtXtX4 2 9 tXtX*.! 1.tXtXtXtXtXtXtXtXtXtXtXtX",
"tXtXtXtXtXtXtXtXtXtXtXtXtXtXtXtXtXtXtXtXtXtXtXtXtXtXtXtXtXtXtXtX",
"tXtXtXtXtXtXtXtXtXtXtXtXtXtXtXtXtXtXtXtXtXtXtXtXtXtXtXtXtXtXtXtX",
"tXtXtXtXtXtXtXtXtXtXtXtXtXtXtXtXtXtXtXtXtXtXW._.E.tXtXtXtXtXtXtX",
"tXtXtXtXtXtXtXtXtXtXtXtXtXtXtXtXtXtXtXtXtXE.~._.K.b.tXtXtXtXtXtX",
"tXtXtXtXtXtXtXtXtXtXtXtXtXtXtXtXtXtXtXtXtX~._.~.V.l.s.tXtXtXtXtX",
"tXtXtXtXtXtXtXtXtXtXtXtXtXtXtXtXtXtXtXtXtXt.u.u.m.m.s.tXtXtXtXtX",
"tXtXtXtXtXtXtXtXtXtXtXtXtXtXtXtXtXtXtXtXtXR *.-.0.m.tXtXtXtXtXtX",
"tXtXtXtXtXtXtXtXtXtXtXtXtXtXtXtXtXtXtXtXtXtX^ -.1.e.tXtXtXtXtXtX",
"tXtXtXtXtXtXtXtXtXtXtXtXtXtXtXtXtXtXtXtXtXtXtXtXtXtXtXtXtXtXtXtX"
};
